<svg id="Layer_1" data-name="Layer 1" xmlns="http://www.w3.org/2000/svg" viewBox="0 0 1071.34 227.3"><defs><style>.cls-1{fill:#fff;}</style></defs><path class="cls-1" d="M300.68,384V308.36c-77-8.18-162.07,70.85-153.15,152.94,22.09,0,44.43.38,66.72-.42,3.16-.11,8.07-5.48,8.89-9.15,9.61-43.19,34.65-65.36,78-68.14v75.74c77.5,9,164.65-78.07,153.35-153-22.46,0-45.29-.37-68.07.45-2.93.11-7.32,6.05-8.16,9.91C369.25,358.06,342.62,381.44,300.68,384Z" transform="translate(-146.88 -240.7)"/><path class="cls-1" d="M301.11,383.59c-43.32,2.78-68.36,25-78,68.14-.82,3.67-5.73,9-8.89,9.15-22.29.8-44.63.42-66.72.42-8.92-82.09,76.12-161.12,153.15-152.94V384Z" transform="translate(-146.88 -240.7)"/><path class="cls-1" d="M300.68,384c41.94-2.59,68.57-26,77.56-67.3.84-3.86,5.23-9.8,8.16-9.91,22.78-.82,45.61-.45,68.07-.45,11.3,74.89-75.85,162-153.35,153,0-25,0-50.38,0-75.74Z" transform="translate(-146.88 -240.7)"/><path class="cls-1" d="M513.94,463.62V311.14h36.94V463.62Zm27.87-66.69q0-29.9,6.73-49.47t18.08-29A38.49,38.49,0,0,1,591.9,309a52,52,0,0,1,7.12.47,47.69,47.69,0,0,1,6.65,1.41l-.62,36.94q-4.08-.93-8.77-1.56a64.19,64.19,0,0,0-8.45-.63q-12.21,0-20.43,5.87T555,368.75q-4.14,11.43-4.15,28.18Z" transform="translate(-146.88 -240.7)"/><path class="cls-1" d="M621.48,311.14h36.95v93.3q0,14.88,7.35,22.31t20.2,7.44a36.52,36.52,0,0,0,20-5.72q9-5.7,14.4-16.9t5.4-27.79h10q0,27.87-7.2,46.18t-19.88,27.4a49,49,0,0,1-29.28,9.07A72.3,72.3,0,0,1,650,460.64,44.94,44.94,0,0,1,629.15,442q-7.67-12.83-7.67-33.81Zm104.26,0h36.94V463.62H725.74Z" transform="translate(-146.88 -240.7)"/><path class="cls-1" d="M808.71,463.62V248.84h36.94V426.05l-12.83,37.57ZM886.35,468a45.59,45.59,0,0,1-26.06-8q-11.82-8-18.86-23.88t-7-39.84h11.27a38.14,38.14,0,0,0,5.17,20,37.67,37.67,0,0,0,13.3,13.39A33,33,0,0,0,881,434.5a32.64,32.64,0,0,0,19.26-5.95A40.59,40.59,0,0,0,913.67,412q4.94-10.65,4.93-25,0-13.94-4.85-24.34a38.93,38.93,0,0,0-13.39-16.2,34.14,34.14,0,0,0-19.64-5.8A34.66,34.66,0,0,0,863.5,345a34.27,34.27,0,0,0-12.92,12.83q-4.92,8.38-4.93,20.27H834.38q0-23,6.65-38.82t19-23.87q12.28-8.07,29.19-8.06a60.5,60.5,0,0,1,33.58,9.78q15.11,9.78,24.11,27.71t9,42q0,24.42-9.32,42.66T921.42,457.9A63.83,63.83,0,0,1,886.35,468Z" transform="translate(-146.88 -240.7)"/><path class="cls-1" d="M1010.34,283.9q-10.82,0-16.83-5.71t-6-15.89q0-9.86,6-15.73t16.83-5.87q10.49,0,16.67,5.87t6.18,15.73q0,10.18-6.18,15.89T1010.34,283.9ZM991.86,463.62V311.14h36.95V463.62Z" transform="translate(-146.88 -240.7)"/><path class="cls-1" d="M1055.1,463.62l59.18-75.77-59.18-76.71h45.4L1137.76,360l35.38-48.85h45.08l-58.86,76.71,58.86,75.77h-45.08l-37.89-48.84-34.75,48.84Z" transform="translate(-146.88 -240.7)"/></svg>