<?xml version="1.0" encoding="UTF-8" standalone="no"?>
<!DOCTYPE svg PUBLIC "-//W3C//DTD SVG 1.1//EN" "http://www.w3.org/Graphics/SVG/1.1/DTD/svg11.dtd">
<svg width="100%" height="100%" viewBox="0 0 3130 3544" version="1.1" xmlns="http://www.w3.org/2000/svg" xmlns:xlink="http://www.w3.org/1999/xlink" xml:space="preserve" xmlns:serif="http://www.serif.com/" style="fill-rule:evenodd;clip-rule:evenodd;stroke-linejoin:round;stroke-miterlimit:2;">
    <g transform="matrix(1,0,0,1,-146.338,-246.192)">
        <g transform="matrix(19.2308,0,0,19.2308,-19725.4,-2738.67)">
            <g opacity="0.08">
                <g transform="matrix(0.65,0,0,0.65,988.95,64.6598)">
                    <path d="M193.472,422.776L258.887,309.876L128.057,309.876L193.472,422.776ZM193.472,403.079L241.83,319.617L145.114,319.617L193.472,403.079Z" style="fill:rgb(106,133,195);"/>
                    <path d="M135.095,321.842L201.938,206.477L184.657,205.803L68.275,210.039L135.095,321.842ZM135.095,302.336L184.657,215.474L85.698,219.686L135.095,302.336Z" style="fill:rgb(106,133,195);"/>
                    <path d="M133.253,308.344L137.939,316.698L79.644,351.339L74.958,342.986L133.253,308.344Z" style="fill:rgb(106,133,195);"/>
                    <path d="M251.62,322.564L186.325,205.803L318.669,210.065L251.62,322.564ZM251.62,302.937L203.93,215.846L301.186,219.772L251.62,302.937Z" style="fill:rgb(106,133,195);"/>
                    <path d="M307.883,351.339L312.568,342.986L254.84,308.681L250.154,317.035L307.883,351.339Z" style="fill:rgb(106,133,195);"/>
                    <rect x="188.786" y="146.448" width="9.372" height="66.637" style="fill:rgb(106,133,195);"/>
                    <path d="M104.689,360.403L193.472,412.239L283.644,360.34L303.689,360.34L193.472,422.776L84.177,360.403L104.689,360.403ZM73.556,354.899L68.275,351.91L68.275,226.606L77.583,242.302L77.583,346.641L82.762,349.573L73.556,354.899ZM304.608,349.331L309.361,346.641L309.361,244.238L318.669,228.081L318.669,351.91L313.69,354.728L304.608,349.331ZM302.26,200.89L283.644,200.89L193.472,149.849L103.126,200.988L103.126,200.868L84.722,200.868L193.472,139.312L302.26,200.89Z" style="fill:rgb(106,133,195);"/>
                </g>
            </g>
        </g>
    </g>
</svg>
