<?xml version="1.0" encoding="UTF-8" standalone="no"?>
<!DOCTYPE svg PUBLIC "-//W3C//DTD SVG 1.1//EN" "http://www.w3.org/Graphics/SVG/1.1/DTD/svg11.dtd">
<svg width="100%" height="100%" viewBox="0 0 100 40" version="1.1" xmlns="http://www.w3.org/2000/svg" xmlns:xlink="http://www.w3.org/1999/xlink" xml:space="preserve" xmlns:serif="http://www.serif.com/" style="fill-rule:evenodd;clip-rule:evenodd;stroke-linejoin:round;stroke-miterlimit:2;">
    <g transform="matrix(1,0,0,1,-4587.41,-138.61)">
        <g transform="matrix(0.986581,0,0,1,1176.24,-170.906)">
            <g transform="matrix(1.0213,0,0,1.01488,217.323,-89.5011)">
                <g transform="matrix(0.94774,-3.21937e-18,3.10823e-18,-1.00791,190.747,785.193)">
                    <path d="M3164.61,349.846L3174.15,365.421L3155.07,365.421L3164.61,349.846ZM3164.61,352.563L3171.66,364.077L3157.56,364.077L3164.61,352.563Z" style="fill:rgb(0,120,140);"/>
                </g>
                <g transform="matrix(0.968095,5.43255e-19,-5.62679e-19,-0.998115,118.264,767.731)">
                    <path d="M3164.61,349.846L3174.15,365.917L3171.68,366.011L3155.07,365.421L3164.61,349.846ZM3164.61,352.563L3171.68,364.663L3157.56,364.077L3164.61,352.563Z" style="fill:rgb(0,120,140);"/>
                </g>
                <g transform="matrix(-0.343639,-0.616481,-0.803505,0.480491,4360.47,2115.67)">
                    <rect x="2922.69" y="216.321" width="1.884" height="10.024" style="fill:rgb(0,120,140);"/>
                </g>
                <g transform="matrix(-0.971421,2.15796e-19,2.23512e-19,-1.00433,6272.18,770.005)">
                    <path d="M3164.61,349.846L3173.9,366.011L3155.07,365.421L3164.61,349.846ZM3164.61,352.563L3171.39,364.62L3157.56,364.077L3164.61,352.563Z" style="fill:rgb(0,120,140);"/>
                </g>
                <g transform="matrix(-0.343639,0.616481,-0.795688,-0.475816,4382.9,-1277.37)">
                    <rect x="2922.69" y="216.321" width="1.884" height="10.024" style="fill:rgb(0,120,140);"/>
                </g>
                <g transform="matrix(0.687277,0,0,0.92428,1180.63,194.216)">
                    <rect x="2922.69" y="216.321" width="1.884" height="10.024" style="fill:rgb(0,120,140);"/>
                </g>
                <path d="M3177.71,423.906L3189.97,431.113L3202.43,423.897L3205.2,423.897L3189.97,432.578L3174.87,423.906L3177.71,423.906ZM3173.41,423.141L3172.68,422.725L3172.68,405.303L3173.96,407.485L3173.96,421.993L3174.68,422.4L3173.41,423.141ZM3205.33,422.367L3205.99,421.993L3205.99,407.754L3207.27,405.508L3207.27,422.725L3206.59,423.117L3205.33,422.367ZM3205.01,401.727L3202.43,401.727L3189.97,394.63L3177.49,401.741L3177.49,401.724L3174.95,401.724L3189.97,393.165L3205.01,401.727Z" style="fill:rgb(0,120,140);"/>
            </g>
            <g transform="matrix(1.66667,0,0,1.66667,-3316.2,-162.624)">
                <g transform="matrix(16.6637,0,0,16.6637,4089.44,301.131)">
                    <path d="M0.075,-0L0.075,-0.38C0.075,-0.4 0.074,-0.421 0.073,-0.442C0.072,-0.463 0.071,-0.483 0.068,-0.503L0.156,-0.503L0.167,-0.377L0.152,-0.376C0.158,-0.407 0.17,-0.432 0.186,-0.452C0.203,-0.473 0.223,-0.488 0.245,-0.497C0.268,-0.507 0.292,-0.512 0.317,-0.512C0.327,-0.512 0.336,-0.512 0.344,-0.511C0.351,-0.51 0.359,-0.508 0.366,-0.506L0.364,-0.425C0.354,-0.429 0.345,-0.432 0.336,-0.433C0.328,-0.434 0.318,-0.434 0.306,-0.434C0.277,-0.434 0.252,-0.427 0.231,-0.414C0.21,-0.4 0.194,-0.383 0.183,-0.361C0.172,-0.339 0.166,-0.315 0.166,-0.29L0.166,-0L0.075,-0Z" style="fill:rgb(0,120,140);fill-rule:nonzero;"/>
                </g>
                <g transform="matrix(16.6637,0,0,16.6637,4103.04,301.131)">
                    <path d="M0.337,0.009C0.292,0.009 0.253,-0.002 0.221,-0.025C0.188,-0.047 0.167,-0.078 0.156,-0.117L0.167,-0.117L0.167,-0L0.076,-0L0.076,-0.711L0.167,-0.711L0.167,-0.388L0.156,-0.388C0.167,-0.427 0.189,-0.457 0.221,-0.479C0.254,-0.501 0.292,-0.512 0.337,-0.512C0.382,-0.512 0.421,-0.502 0.454,-0.481C0.487,-0.459 0.513,-0.43 0.532,-0.391C0.55,-0.352 0.559,-0.306 0.559,-0.251C0.559,-0.197 0.55,-0.151 0.531,-0.112C0.513,-0.073 0.487,-0.043 0.453,-0.022C0.42,-0.001 0.381,0.009 0.337,0.009ZM0.316,-0.063C0.361,-0.063 0.398,-0.079 0.426,-0.111C0.453,-0.142 0.467,-0.189 0.467,-0.251C0.467,-0.313 0.453,-0.36 0.426,-0.392C0.398,-0.424 0.361,-0.439 0.316,-0.439C0.27,-0.439 0.234,-0.424 0.207,-0.392C0.179,-0.361 0.166,-0.314 0.166,-0.252C0.166,-0.19 0.179,-0.143 0.207,-0.111C0.234,-0.079 0.27,-0.063 0.316,-0.063Z" style="fill:rgb(0,120,140);fill-rule:nonzero;"/>
                </g>
                <g transform="matrix(16.6637,0,0,16.6637,4112.38,301.131)">
                    <path d="M0.076,-0L0.076,-0.478L0.167,-0.533L0.167,-0L0.076,-0ZM0.076,-0.55L0.076,-0.658L0.167,-0.711L0.167,-0.605L0.076,-0.55Z" style="fill:rgb(0,120,140);fill-rule:nonzero;"/>
                </g>
                <g transform="matrix(16.6637,0,0,16.6637,4112.38,301.131)">
                    <path d="M0.076,-0L0.076,-0.478L0.167,-0.533L0.167,-0L0.076,-0ZM0.076,-0.55L0.076,-0.658L0.167,-0.711L0.167,-0.605L0.076,-0.55Z" style="fill:rgb(0,120,140);fill-rule:nonzero;"/>
                </g>
                <g transform="matrix(16.6637,0,0,16.6637,4116.24,301.131)">
                    <path d="M0.013,0L0.234,-0.282L0.234,-0.237L0.019,-0.503L0.128,-0.503L0.285,-0.302L0.252,-0.302L0.409,-0.503L0.517,-0.503L0.305,-0.239L0.305,-0.28L0.53,-0L0.42,-0L0.252,-0.215L0.285,-0.215L0.122,0L0.013,0Z" style="fill:rgb(0,120,140);fill-rule:nonzero;"/>
                </g>
                <g transform="matrix(1,0,0,1,-0.0986246,0)">
                    <g transform="matrix(0.925763,0,0,0.925763,336.149,7.64069)">
                        <path d="M4068.52,315.57C4068.28,316.003 4067.96,316.355 4067.56,316.626C4067.01,317.002 4066.36,317.19 4065.62,317.19C4064.54,317.19 4063.72,316.894 4063.17,316.303C4062.62,315.711 4062.35,314.804 4062.35,313.582L4062.35,307.972L4063.99,307.972L4063.99,313.542C4063.99,314.337 4064.15,314.921 4064.48,315.293C4064.8,315.665 4065.3,315.851 4065.98,315.851C4066.73,315.851 4067.34,315.602 4067.8,315.105C4068.26,314.608 4068.49,313.948 4068.49,313.124L4068.49,307.972L4068.52,307.972L4068.52,315.57Z" style="fill:rgb(0,120,140);fill-rule:nonzero;"/>
                    </g>
                    <g transform="matrix(-0.925763,0,0,0.925763,7863.89,7.64069)">
                        <path d="M4068.52,315.57C4068.28,316.003 4067.96,316.355 4067.56,316.626C4067.01,317.002 4066.36,317.19 4065.62,317.19C4064.54,317.19 4063.72,316.894 4063.17,316.303C4062.62,315.711 4062.35,314.804 4062.35,313.582L4062.35,307.972L4063.99,307.972L4063.99,313.542C4063.99,314.337 4064.15,314.921 4064.48,315.293C4064.8,315.665 4065.3,315.851 4065.98,315.851C4066.73,315.851 4067.34,315.602 4067.8,315.105C4068.26,314.608 4068.49,313.948 4068.49,313.124L4068.49,307.972L4068.52,307.972L4068.52,315.57Z" style="fill:rgb(0,120,140);fill-rule:nonzero;"/>
                    </g>
                </g>
            </g>
        </g>
    </g>
</svg>
